# xmcd
#
# Track frame offsets:
#	150
#	11775
#	23827
#	34347
#	46637
#	56912
#	69017
#	81612
#	95380
#	118435
#	128110
#	139675
#	152077
#	180181
#	194841
#	210926
#	224598
#	237163
#	250766
#	274366
#	291036
#	305233
#	316731
#	328843
#
# Disc length: 4522 seconds
# Revision: 0
# Processed by: cddbd v1.5.2PL0 Copyright (c) Steve Scherf et al.
# Submitted via: dBpowerAMP V12.0
#
DISCID=6811a818
DTITLE=B. B. KING - THE COMPLETE RPM - KENT RECORDING BOX, CD5
DYEAR=2015
DGENRE=Blues
TTITLE0=Please Accept My Love
TTITLE1=You've Been An Angel
TTITLE2=I Am
TTITLE3=Worry Worry
TTITLE4=Come By Here
TTITLE5=The Fool
TTITLE6=A Lonely Lover's Plea
TTITLE7=The Woman I Love
TTITLE8=Everyday I Have The Blues
TTITLE9=Time To Say Goodbye
TTITLE10=Mean Ole Frisco
TTITLE11=Sugar Mama
TTITLE12=Sweet Sixteen
TTITLE13=Got A Right To Love My Baby
TTITLE14=My Own Fault
TTITLE15=Sweet Little Angel
TTITLE16=Good Man Gone Bad
TTITLE17=Partin' Time
TTITLE18=You Done Lost Your Good Thing Now
TTITLE19=Walking Dr. Bill
TTITLE20=Things Are Not The Same
TTITLE21=Fishin' After Me (aka Catfish Blues)
TTITLE22=Get Out Of Here
TTITLE23=Bad Luck Soul
EXTD=
EXTT0=
EXTT1=
EXTT2=
EXTT3=
EXTT4=
EXTT5=
EXTT6=
EXTT7=
EXTT8=
EXTT9=
EXTT10=
EXTT11=
EXTT12=
EXTT13=
EXTT14=
EXTT15=
EXTT16=
EXTT17=
EXTT18=
EXTT19=
EXTT20=
EXTT21=
EXTT22=
EXTT23=
PLAYORDER=
